<svg xmlns="http://www.w3.org/2000/svg" xmlns:xlink="http://www.w3.org/1999/xlink" version="1.1" width="256" height="256" viewBox="0 0 256 256" xml:space="preserve">
<g style="stroke: none; stroke-width: 0; stroke-dasharray: none; stroke-linecap: butt; stroke-linejoin: miter; stroke-miterlimit: 10; fill: none; fill-rule: nonzero; opacity: 1;" transform="translate(1.4065934065934016 1.4065934065934016) scale(2.81 2.81)">
	<path d="M 52.835 31.335 c 0 -4.32 -3.515 -7.835 -7.835 -7.835 s -7.835 3.515 -7.835 7.835 v 6.479 h 15.67 V 31.335 z" style="stroke: none; stroke-width: 1; stroke-dasharray: none; stroke-linecap: butt; stroke-linejoin: miter; stroke-miterlimit: 10; fill: rgb(0,0,0); fill-rule: nonzero; opacity: 1;" transform=" matrix(1 0 0 1 0 0) " stroke-linecap="round"/>
	<path d="M 45 0 C 20.147 0 0 20.147 0 45 c 0 24.853 20.147 45 45 45 s 45 -20.147 45 -45 C 90 20.147 69.853 0 45 0 z M 61.343 56.247 c 0 7.859 -6.394 14.253 -14.253 14.253 h -4.179 c -7.859 0 -14.253 -6.394 -14.253 -14.253 V 39.815 c 0 -1.104 0.896 -2 2 -2 h 2.507 v -6.479 C 33.165 24.81 38.474 19.5 45 19.5 c 6.525 0 11.835 5.31 11.835 11.835 v 6.479 h 2.508 c 1.104 0 2 0.896 2 2 V 56.247 z" style="stroke: none; stroke-width: 1; stroke-dasharray: none; stroke-linecap: butt; stroke-linejoin: miter; stroke-miterlimit: 10; fill: rgb(0,0,0); fill-rule: nonzero; opacity: 1;" transform=" matrix(1 0 0 1 0 0) " stroke-linecap="round"/>
	<path d="M 35.165 41.815 h -2.507 v 14.432 c 0 5.653 4.6 10.253 10.253 10.253 h 4.179 c 5.653 0 10.253 -4.6 10.253 -10.253 V 41.815 h -2.508 H 35.165 z M 47 56.531 c 0 1.104 -0.896 2 -2 2 s -2 -0.896 -2 -2 v -6.458 c 0 -1.104 0.896 -2 2 -2 s 2 0.896 2 2 V 56.531 z" style="stroke: none; stroke-width: 1; stroke-dasharray: none; stroke-linecap: butt; stroke-linejoin: miter; stroke-miterlimit: 10; fill: rgb(0,0,0); fill-rule: nonzero; opacity: 1;" transform=" matrix(1 0 0 1 0 0) " stroke-linecap="round"/>
</g>
</svg>